<?xml version="1.0" encoding="UTF-8" standalone="no"?>
<svg
   version="1.1"
   x="0px"
   y="0px"
   viewBox="0 0 38 33.5"
   xml:space="preserve"
   width="38"
   height="33.5"
   xmlns="http://www.w3.org/2000/svg"
   xmlns:svg="http://www.w3.org/2000/svg">
<path
   style="fill:#ff6647;stroke-width:0.0742188"
   d="M 35.228301,3.3126051 C 33.336762,1.1763671 30.722332,0 27.866691,0 25.62343,0 23.524895,0.91281608 21.798047,2.6396641 20.646023,3.7917621 19.69543,5.2566171 19.000074,6.9392301 18.30457,5.2566171 17.354125,3.7918361 16.202102,2.6396641 14.475254,0.91281608 12.376719,0 10.133457,0 7.2777419,0 4.6633869,1.1764411 2.7718479,3.3126801 1.0102659,5.3018161 -1.868043e-7,8.0186681 -1.868043e-7,10.766616 c 0,3.299617 0.9983910368043,6.556113 2.9673400868043,9.679461 1.559262,2.473266 3.727785,4.867637 6.4455268,7.116762 4.6049773,3.810984 9.1373673,5.86291 9.3280353,5.948336 0.163504,0.07333 0.354692,0.07333 0.518121,0 0.190743,-0.08543 4.723059,-2.137352 9.328036,-5.948336 2.717742,-2.249125 4.886265,-4.643496 6.445527,-7.116762 C 37.001609,17.322729 38,14.066233 38,10.766616 38,8.0186681 36.989734,5.3018161 35.228301,3.3126051 Z"
   id="path2" />
</svg>
